#!OML:ASF H:\Terrain\Patient Classification 1\Animal2\Wednesday\Animal2.ASF
:FULLY-SPECIFIED
:DEGREES
415
root 10.4625 17.8978 12.624 -0.849641 -2.53928 2.36023
lowerback 3.85145 -1.5483 -1.75948
upperback -0.575482 -2.15755 -0.306933
thorax -2.69689 -1.05063 0.801503
lowerneck -0.146695 7.46106 16.598
upperneck 5.09484 11.0672 -21.216
head 3.67741 5.40062 -8.92872
rclavicle -1.61054e-014 -2.18663e-015
rhumerus -34.6903 1.29013 -86.4473
rradius 23.0302
rwrist 17.3452
rhand -14.9581 21.4427
rfingers 7.12502
rthumb 11.2052 -8.23805
lclavicle -1.61054e-014 -2.18663e-015
lhumerus -36.0956 -5.01427 84.7322
lradius 27.3674
lwrist 10.8282
lhand -21.8429 24.7791
lfingers 7.12502
lthumb 4.56045 54.71
rfemur -16.0973 -1.67944 18.3374
rtibia 66.5276
rfoot -8.86439 -9.22019
rtoes -5.76274
lfemur -9.73574 2.4041 -26.454
ltibia 21.7097
lfoot -13.2802 0.639297
ltoes -20.3368
416
root 10.4682 17.8859 12.7773 -0.809293 -2.0125 2.62
lowerback 3.7853 -1.76122 -2.08016
upperback -0.666732 -2.45495 -0.246609
thorax -2.73023 -1.19245 1.05948
lowerneck -0.0242565 7.50047 16.543
upperneck 5.24917 11.1594 -21.1787
head 3.71309 5.44962 -8.90353
rclavicle 1.20839e-014 -5.96354e-016
rhumerus -35.4559 1.76872 -86.3369
rradius 23.4022
rwrist 16.8701
rhand -15.3353 21.617
rfingers 7.12502
rthumb 10.8414 -8.08319
lclavicle 1.20839e-014 -5.96354e-016
lhumerus -35.7708 -5.5622 85.0604
lradius 27.9821
lwrist 10.9216
lhand -21.7431 25.0375
lfingers 7.12502
lthumb 4.65679 54.9663
rfemur -17.2643 -2.03475 18.052
rtibia 66.4507
rfoot -9.78551 -9.12258
rtoes -3.07016
lfemur -9.21873 2.49654 -26.7877
ltibia 21.7098
lfoot -13.8085 0.0351934
ltoes -19.0891
417
root 10.4666 17.8766 12.933 -0.780236 -1.59458 2.71908
lowerback 3.80245 -1.956 -2.37835
upperback -0.79758 -2.727 -0.0809156
thorax -2.8443 -1.31931 1.41535
lowerneck 0.149827 7.52654 16.3761
upperneck 5.4462 11.2498 -21.1673
head 3.74651 5.49669 -8.87066
rclavicle 1.22967e-014 -7.35503e-015
rhumerus -36.1915 2.09775 -86.1143
rradius 23.4687
rwrist 16.5679
rhand -15.6856 21.7645
rfingers 7.12502
rthumb 10.5035 -7.95309
lclavicle 1.22967e-014 -7.35503e-015
lhumerus -35.5302 -6.33915 85.6122
lradius 28.4778
lwrist 11.4627
lhand -22.3274 24.663
lfingers 7.12502
lthumb 4.09265 54.6034
rfemur -18.4682 -2.32101 18.0728
rtibia 66.2639
rfoot -10.8456 -9.45914
rtoes -3.51294
lfemur -8.75299 2.72136 -26.9052
ltibia 21.7917
lfoot -14.4727 -0.287011
ltoes -20.1556
418
root 10.4666 17.868 13.0857 -0.858142 -1.29634 2.77361
lowerback 3.93276 -2.09708 -2.58539
upperback -0.833999 -2.92647 0.0340315
thorax -2.93099 -1.4125 1.66693
lowerneck 0.215347 7.54354 16.3509
upperneck 5.54404 11.3045 -21.2486
head 3.77764 5.5232 -8.89271
rclavicle -1.71793e-014 5.56597e-015
rhumerus -36.5798 1.95133 -85.7318
rradius 23.3164
rwrist 16.7869
rhand -16.034 22.3233
rfingers 7.12502
rthumb 10.1673 -7.41103
lclavicle -1.71793e-014 5.56597e-015
lhumerus -35.1619 -7.00656 86.0775
lradius 28.841
lwrist 11.604
lhand -23.3066 23.9612
lfingers 7.12502
lthumb 3.147 53.9178
rfemur -19.6238 -2.49363 18.0914
rtibia 65.9834
rfoot -11.9775 -9.46159
rtoes -2.93216
lfemur -8.24507 2.8423 -26.9591
ltibia 22.0585
lfoot -15.2071 -0.517222
ltoes -20.3175
419
root 10.4659 17.8509 13.2373 -0.964091 -0.9946 2.85489
lowerback 3.95624 -2.24273 -2.7734
upperback -0.73427 -3.12803 0.0715267
thorax -2.82006 -1.51219 1.8203
lowerneck 0.163804 7.62019 16.4915
upperneck 5.48047 11.3989 -21.3073
head 3.79969 5.57007 -8.92596
rclavicle -4.5677e-014 -5.36719e-015
rhumerus -36.8508 2.01014 -85.5809
rradius 23.396
rwrist 16.5724
rhand -16.2714 22.5665
rfingers 7.12502
rthumb 9.93836 -7.17887
lclavicle -4.5677e-014 -5.36719e-015
lhumerus -34.5801 -7.29587 86.1403
lradius 29.1882
lwrist 11.1587
lhand -23.0909 23.7998
lfingers 7.12502
lthumb 3.35531 53.7532
rfemur -20.6944 -2.73645 18.0365
rtibia 65.581
rfoot -12.748 -9.39881
rtoes -1.78913
lfemur -7.79031 3.11415 -27.0081
ltibia 22.4389
lfoot -15.8908 -1.11787
ltoes -19.2578
